<svg width="220" height="46" viewBox="0 0 220 46" fill="none" xmlns="http://www.w3.org/2000/svg">
<path d="M0.25 35.125L8.1875 32.3125C8.1875 33.3542 8.47917 34.2708 9.0625 35.0625C9.64583 35.8542 10.2292 36.375 10.8125 36.625L11.6875 37.0625V45.1875C8.14583 45.1875 5.125 43.6458 2.625 40.5625C1.08333 38.6042 0.291667 36.7917 0.25 35.125ZM0.75 13.25C0.75 8.66667 2.70833 5.22917 6.625 2.9375C8.41667 1.85417 10.1042 1.29167 11.6875 1.25V9.5C10.6458 9.79167 9.875 10.5417 9.375 11.75C9.20833 12.125 9.125 12.5208 9.125 12.9375C9.125 14.6458 10.3958 16.1042 12.9375 17.3125C13.4792 17.5625 14.3542 17.9375 15.5625 18.4375C17.5625 19.2292 18.9792 19.875 19.8125 20.375C23.1875 22.375 25.4375 24.4167 26.5625 26.5C27.3958 28.125 27.8125 29.9375 27.8125 31.9375C27.8125 35.7292 26.375 38.9792 23.5 41.6875C21.0417 44.0208 18.25 45.1875 15.125 45.1875V37.0625C16.75 36.8542 17.8958 36 18.5625 34.5C18.8542 33.8333 19 33.1042 19 32.3125C19 30.1875 17.4167 28.4375 14.25 27.0625C13.6667 26.8125 12.75 26.4583 11.5 26C10.0417 25.5 9.02083 25.1042 8.4375 24.8125C4.85417 23.1042 2.5625 20.8958 1.5625 18.1875C1.02083 16.7292 0.75 15.0833 0.75 13.25ZM15.125 9.5V1.25C18.625 1.25 21.5625 2.72917 23.9375 5.6875C25.3125 7.4375 26.0208 9.02083 26.0625 10.4375L17.9375 13.125C17.9375 11.375 17.0833 10.1875 15.375 9.5625C15.2083 9.52083 15.125 9.5 15.125 9.5ZM31.6875 45V1.25H54.4375V10H40.5V18.875H48.5625V27.6875H40.5V36.1875H54.4375V45H31.6875ZM59.4375 45V1.25H68.25V45H59.4375ZM71.625 27.125V19.3125H72.4375C75.1042 19.3125 76.8125 18.2292 77.5625 16.0625C77.7292 15.5208 77.8125 14.9583 77.8125 14.375C77.8125 12.1667 76.7708 10.6875 74.6875 9.9375C74.0208 9.6875 73.2708 9.5625 72.4375 9.5625H71.625V1.25H73C78.4583 1.33333 82.2917 3.27083 84.5 7.0625C85.5417 8.85417 86.0625 10.875 86.0625 13.125C86.0208 17.4167 84.6042 20.7083 81.8125 23C83.8958 24.3333 85.2292 26.75 85.8125 30.25C85.8542 30.6667 85.8958 31.0625 85.9375 31.4375L87 45H78.875L77.9375 33.875C77.6042 30.5417 76.6458 28.4792 75.0625 27.6875C74.3125 27.3542 73.3958 27.1667 72.3125 27.125H71.625ZM88.875 1.25H97.875L107.812 35.125L104.5 45H101.562L88.875 1.25ZM104.938 12.875L108.375 1.25H117.375C117.333 1.375 114.771 9.91667 109.688 26.875H109.062L104.938 12.875ZM120.5 45V1.25H129.312V45H120.5ZM134.312 33.6875V12.625C134.312 10.2083 135.208 7.85417 137 5.5625C139.375 2.52083 142.583 0.979167 146.625 0.9375V9.75C144.875 9.79167 143.75 10.6042 143.25 12.1875C143.167 12.3542 143.125 12.5 143.125 12.625V33.6875C143.125 34.3542 143.479 35 144.188 35.625C144.854 36.2083 145.667 36.5 146.625 36.5V45.3125C141.958 45.3125 138.438 43.3542 136.062 39.4375C134.896 37.4375 134.312 35.5208 134.312 33.6875ZM150 45.3125V36.5C150 36.5 150.479 36.3125 151.438 35.9375C152.021 35.5208 152.417 35.0833 152.625 34.625C152.833 34.0833 152.938 33.3125 152.938 32.3125V31.5625L161.562 33.625C161.562 37.25 160.104 40.25 157.188 42.625C154.979 44.4167 152.583 45.3125 150 45.3125ZM150 9.75V0.9375C153.042 0.9375 155.792 2.27083 158.25 4.9375C160.458 7.35417 161.562 9.95833 161.562 12.75L152.938 15V14.0625C152.938 13.0208 152.833 12.25 152.625 11.75C152.458 11.3333 152.146 10.9583 151.688 10.625C151.271 10.2917 150.896 10.0625 150.562 9.9375L150 9.75ZM165.438 45V1.25H188.188V10H174.25V18.875H182.312V27.6875H174.25V36.1875H188.188V45H165.438ZM191.812 35.125L199.75 32.3125C199.75 33.3542 200.042 34.2708 200.625 35.0625C201.208 35.8542 201.792 36.375 202.375 36.625L203.25 37.0625V45.1875C199.708 45.1875 196.688 43.6458 194.188 40.5625C192.646 38.6042 191.854 36.7917 191.812 35.125ZM192.312 13.25C192.312 8.66667 194.271 5.22917 198.188 2.9375C199.979 1.85417 201.667 1.29167 203.25 1.25V9.5C202.208 9.79167 201.438 10.5417 200.938 11.75C200.771 12.125 200.688 12.5208 200.688 12.9375C200.688 14.6458 201.958 16.1042 204.5 17.3125C205.042 17.5625 205.917 17.9375 207.125 18.4375C209.125 19.2292 210.542 19.875 211.375 20.375C214.75 22.375 217 24.4167 218.125 26.5C218.958 28.125 219.375 29.9375 219.375 31.9375C219.375 35.7292 217.938 38.9792 215.062 41.6875C212.604 44.0208 209.812 45.1875 206.688 45.1875V37.0625C208.312 36.8542 209.458 36 210.125 34.5C210.417 33.8333 210.562 33.1042 210.562 32.3125C210.562 30.1875 208.979 28.4375 205.812 27.0625C205.229 26.8125 204.312 26.4583 203.062 26C201.604 25.5 200.583 25.1042 200 24.8125C196.417 23.1042 194.125 20.8958 193.125 18.1875C192.583 16.7292 192.312 15.0833 192.312 13.25ZM206.688 9.5V1.25C210.188 1.25 213.125 2.72917 215.5 5.6875C216.875 7.4375 217.583 9.02083 217.625 10.4375L209.5 13.125C209.5 11.375 208.646 10.1875 206.938 9.5625C206.771 9.52083 206.688 9.5 206.688 9.5Z" fill="url(#paint0_linear_78_168)"/>
<defs>
<linearGradient id="paint0_linear_78_168" x1="3.54386" y1="26.2546" x2="224.57" y2="26.2546" gradientUnits="userSpaceOnUse">
<stop stop-color="#239DAC"/>
<stop offset="0.959035" stop-color="#8FD7E3"/>
</linearGradient>
</defs>
</svg>
